<svg xmlns="http://www.w3.org/2000/svg" viewBox="0 0 1726 514" color="white" class="object-fill fill-current text-white md-down:h-8 h-10">
  <path d="M288 2.8c-4.9 1.7-158.6 95.7-179 109.6-9.7 6.6-28.1 25-34.9 34.9-9.9 14.6-17.1 31.9-20 48.1-1.6 9-1.3 29.5.5 38.4 2.9 14.2 16.3 56.4 19.7 62.1 12.9 21.6 43.7 26.1 62.8 9.2 9-8 14.6-21.8 13.6-33.6-.2-3.3-3.8-16.8-7.8-30-8.6-28-8.9-30.7-4.1-40.9 6.3-13.5 7.5-14.3 102.3-72.8 59-36.4 86.7-54 89.5-57 8.5-9 11.9-18.3 11.2-31.4-.8-15.5-9.3-28-23.6-34.7-5.7-2.6-8.1-3.2-15.7-3.4-6.7-.2-10.4.2-14.5 1.5zM541 146.6c-24.4 2.9-31.4 4.3-45 8.6-28.7 9.1-47.3 24.6-55.1 45.8-2.1 5.7-2.4 8.2-2.4 20.1v13.5l3.7 7.5c4.5 9.2 9.2 14.6 17.1 20.3 19.8 14 48.7 22.5 92.7 27 56.4 5.9 65.8 7.3 79 12.2 16.5 6.1 22.7 18.9 15.9 32.5-5.2 10.4-22.5 17.4-48.6 19.8-31.8 2.9-63.7-.1-88.9-8.4-11-3.6-27.4-11.4-34.8-16.4-6.1-4.3-12.4-5.6-18.3-4.1-6.3 1.5-9.5 4.1-19.2 15.4l-8.1 9.5 4.3 3.4c26.1 21.1 61.1 35 102.7 40.9 12.8 1.8 60.2 1.8 73 0 12.8-1.9 33.8-7.3 42.8-11.2 23.4-10 39.1-25.3 45.3-44.1 2.1-6.4 2.4-9.2 2.3-20.9 0-11.7-.3-14.3-2.4-19.5-9.2-23.7-31.2-37.7-72.3-46-15.8-3.1-30.6-5-60.7-7.5-46.9-4-62-7.3-70.4-15.6-5.5-5.5-6.9-12.3-4-19.2 6.2-15.1 29.9-22.6 71.4-22.6 33.3 0 56.6 4.6 80.3 16 10.5 5 20.2 4.6 28-1.3 3.5-2.7 17.7-20 17.7-21.6 0-1.3-13.9-9.8-24.3-14.7-17.9-8.5-40.2-14.8-64.2-18-8.2-1.1-51.2-2.2-57.5-1.4zM766.2 265.2l.3 112.5 2.8 3.6c5 6.6 7.1 7.2 27 7.5l17.7.4V301c0-48.5.3-88 .8-87.8.4.1 38.2 38.1 84 84.3 73.9 74.6 84 84.4 89.9 87.5l6.6 3.5 19.3.3 19.4.4V277.8c0-125.7.7-115.2-7.9-121.3l-4.2-3-18-.4-17.9-.3v83.7c0 49.2-.4 83.5-.9 83.3-.5-.2-36.5-36.5-80-80.8-58.1-59.3-80.3-81.2-83.8-83-4.6-2.4-5.3-2.5-30-2.8l-25.3-.4.2 112.4zM1158.2 270.4C1124 335 1096 388.1 1096 388.5c0 .3 10.2.5 22.8.3 21-.3 23-.5 26.7-2.4 2.2-1.2 4.9-3.1 5.9-4.3 1-1.1 6.7-11.4 12.5-22.8l10.6-20.8 74-.3 74-.2 10.8 21.5c15 29.9 14.1 29.4 47 29.5 13.1 0 21.7-.4 21.5-.9-.1-.5-28.2-53.6-62.3-118l-62-117.1h-57l-62.3 117.4zm116.7-25c14.4 28.2 26.1 51.6 26.1 52 0 .3-23.9.6-53 .6h-53.1l11.9-23.3c6.6-12.7 18.6-36.1 26.6-52 8.1-15.8 14.9-28.7 15.1-28.7.2 0 12.1 23.1 26.4 51.4zM1463 270.9V389h15.3c17.1-.1 22.7-1 27.4-4.6 6.7-5.1 6.7-5.5 7.3-40.9l.5-32 67.5-.6c65-.5 67.9-.6 77.3-2.8 30.3-6.8 50.2-20.9 60.2-42.6 4.7-10.1 6.5-19.4 6.5-33.2 0-14.5-1.8-23.4-6.8-33.8-11.2-23.2-32.1-36.8-66.6-43.2-6.7-1.3-23.5-1.6-98.3-2l-90.3-.5v118.1zm184.1-73.3c12.3 3.8 19.9 9.8 24.3 19.3 1.7 3.8 2.1 6.5 2.1 15.6 0 9.4-.3 11.7-2.4 16.3-3 6.7-11.3 14.4-18.4 17-12.3 4.6-14 4.7-78.2 4.7h-61l-.3-37.8-.2-37.8 63.7.3c60.9.4 64.1.5 70.4 2.4z"></path>
  <path d="M222.7 197c-11.3 2.9-21.8 11.8-27 22.7-2.5 5.5-3.2 8.3-3.5 15.5-.4 8.6-.3 9.2 7.8 36 9.3 30.8 9.4 32 3.9 43-6.6 13.2-8.2 14.3-101.5 71.6-46.8 28.8-86.9 53.8-89 55.6-2.2 1.9-5.3 5.8-7.1 8.7-13 21.7-4.4 49.2 18.7 59.7 7.3 3.3 20.2 4.1 28.2 1.8 3.9-1.1 31-17.2 91.9-54.8 47.5-29.2 89.7-55.6 93.7-58.6 25.4-19 43.3-46.7 49.8-76.9 2.1-10.1 2.2-31.1.1-41.3-2.1-9.9-16.2-56.3-18.8-61.7-3.5-7.3-10.4-13.9-18.4-17.9-6.5-3.2-8.4-3.7-16.2-4-4.8-.2-10.5.1-12.6.6z"></path>
</svg>
